<svg xmlns="http://www.w3.org/2000/svg" width="2000" height="2000" viewBox="500 500 4000 4000">
  <defs>
    <style>
      .cls-1 {
        fill-rule: evenodd;
      }
    </style>
  </defs>
  <path fill="white" id="F" class="cls-1" d="M1592,1492c-104.89,0-157.15,55.73-157.15,164.8v654.42h295.76q66.06,0,119.55-69.2,53.46-69.21,97.52-136.88,44.07-67.65,81.82-67.65h31.45q66.06,0,66.07,78.67v613.51q0,78.66-66.07,78.66H2029.5q-37.77,0-81.82-62.92t-97.52-127.43q-53.49-64.485-119.55-64.5H1434.85v550.59q0,84.96,72.36,171.48t72.38,127.42v12.59q0,66.09-78.67,66.07H730.1q-78.663,0-78.664-66.07v-12.59q0-40.89,64.5-127.42,64.477-86.505,64.5-171.48V1625.34q0-84.96-64.5-171.46-64.506-86.52-64.5-127.44v-12.57q0-66.06,78.664-66.07H2545l539.33,0.07q682.62,0,1044.18,307.02,361.545,307,361.57,821.3,0,480.015-336.64,782.35-336.63,302.355-907.02,302.34H2330.05q-77.925,0-77.93-65.46v-12.47q0-40.515,63.89-126.23,63.885-85.695,63.9-169.88V1621.89c0-56.11-20.96-128.92-91.91-129.89C2186.94,1489.99,1592,1492,1592,1492ZM3092.12,3124.25q-79.47-93.51-79.47-264.93V2701.01s109.38-83.82,274.35-4.01c-202.46-162.38-274.35-165.99-274.35-165.99V1995.35s70.87,58.65,166.85,78.15c-154.47-145.47-166.85-274.49-166.85-274.49V1653.06q0-162.09,155.84-162.09h9.35q271.17,0,455.08,363.13,183.885,363.135,183.89,830.67,0,264.93-112.21,398.97t-292.98,134.02h-93.51Q3171.62,3217.76,3092.12,3124.25ZM3484,3410s57.21-15.33,69-51c0,0,54.15-877.71-132-1397C3421,1962,3552.99,2558.17,3484,3410Z"/>
</svg>
